<svg xmlns="http://www.w3.org/2000/svg" viewBox="0 0 170 170" fill="none" role="img" aria-label="Damtech">
  <!-- Back left — smallest, furthest in perspective -->
  <path
    fill="#C4CBD4"
    d="M46 20 C29 34 27 52 29 68 C32 78 46 82 46 82 C46 82 60 78 63 68 C65 52 63 34 46 20 Z"
  />
  <!-- Back right — mid depth -->
  <path
    fill="#C4CBD4"
    d="M122 14 C98 32 94 58 96 80 C99 96 122 102 122 102 C122 102 145 96 148 80 C150 58 146 32 122 14 Z"
  />
  <!-- Front center — Damtech blue with white separation stroke -->
  <path
    fill="#0EA5E9"
    stroke="#FFFFFF"
    stroke-width="7"
    stroke-linejoin="round"
    paint-order="stroke fill"
    d="M85 20 C62 38 55 65 57 88 C60 104 85 112 85 112 C85 112 110 104 113 88 C115 65 108 38 85 20 Z"
  />
</svg>
